<svg id="_7" data-name="7" xmlns="http://www.w3.org/2000/svg" xmlns:xlink="http://www.w3.org/1999/xlink" width="192" height="192" viewBox="0 0 256 256">
  <defs>
    <style>
      .cls-1, .cls-2, .cls-3, .cls-4, .cls-5 {
        fill-rule: evenodd;
      }

      .cls-1 {
        fill: url(#linear-gradient);
      }

      .cls-2 {
        fill: #051f5b;
      }

      .cls-3 {
        fill: #051f5d;
      }

      .cls-4 {
        fill: #05205c;
      }

      .cls-5 {
        fill: #fff;
      }
    </style>
    <linearGradient id="linear-gradient" x1="245.219" y1="13.515" x2="11.281" y2="242.484" gradientUnits="userSpaceOnUse">
      <stop offset="0" stop-color="#1096d4"/>
      <stop offset="4" stop-color="#125496"/>
    </linearGradient>
  </defs>
  <path id="Layer_3" data-name="Layer 3" class="cls-1" d="M124.455,225.611c-1.04,3.329-3.757,14.335-18.472,17.333-3.971.81-4.009,0.33-50.664,0.285-23.013-.022-32.885,1.72-40.667-11.263-4.059-6.772-3.165-7.274-3.223-65.662-0.009-9.042-3.027-29.259,17.633-34.945,4.56-1.254,58.6-.362,71.266-0.583,2.95-.051,23.755-0.413,29.943-21.538,3.249-11.091-.35-71.481,2.04-79.66,5.805-19.874,26.632-16.784,31.836-16.833,4.559-.043,34.043-0.325,56.977,0,2.437,0.035,19.925.281,23.7,19.135,0.639,3.185.32,70.079,0.232,71.752a23.321,23.321,0,0,1-17.149,20.878c-1,.244-0.963.689-55.787,0.619-16.66-.021-39.281-3.316-46.546,24.119C124.27,159.144,126.346,216.605,124.455,225.611Z"/>
  <path id="Layer_4" data-name="Layer 4" class="cls-2" d="M125.172,101.917c-2.323,26.188-26.706,23.172-28.829,23.174-66.359.035-66.414-.068-68.425-0.783C8.766,117.5,11.411,102.216,11.446,85.4c0.114-54.454-1.47-55.45,4.9-63.992,8.282-11.11,20.858-8.3,41.827-8.691,3.418-.063,3.379.291,42.732,0.046,4.616-.029,17.265.154,22.961,15.6,1.567,4.251,1.31,6.239,1.327,33.11Z"/>
  <path id="Layer_5" data-name="Layer 5" class="cls-3" d="M132.973,145.846a23.143,23.143,0,0,1,5.1-7.883,25.357,25.357,0,0,1,10.677-6.437c1.472-.449,1.45-0.81,64.391-0.76,5.3,0,23.2-2.62,30.091,14.5,1.949,4.844,1.892,5.007,1.852,51.8-0.021,24.524,1.83,33.777-10.48,42.468-5.735,4.05-7.066,3.663-44.254,3.615-38.368-.049-43.1.773-48.929-4.007-10.919-8.953-9.879-15.026-9.889-29.541C131.5,150.845,131.459,150.74,132.973,145.846Z"/>
  <g id="Layer_24" data-name="Layer 24">
    <path id="Layer_9" data-name="Layer 9" class="cls-4" d="M337.057,90.67l-0.072-30.24L322.153,85.342H316.9l-14.76-24.264V90.67H291.193V40.27h9.648l18.864,31.32,18.576-31.32h9.576L348,90.67H337.057Z"/>
    <path id="Layer_10" data-name="Layer 10" class="cls-4" d="M377.881,91.246a23.817,23.817,0,0,1-11.124-2.556,19.14,19.14,0,0,1-7.7-7.092,20.507,20.507,0,0,1,0-20.592,19.141,19.141,0,0,1,7.7-7.092,23.817,23.817,0,0,1,11.124-2.556,21.554,21.554,0,0,1,10.692,2.556,15.16,15.16,0,0,1,6.66,7.308l-8.712,4.68q-3.024-5.328-8.712-5.328a9.857,9.857,0,0,0-7.272,2.88,10.6,10.6,0,0,0-2.88,7.848,10.6,10.6,0,0,0,2.88,7.848,9.857,9.857,0,0,0,7.272,2.88,9.424,9.424,0,0,0,8.712-5.328l8.712,4.752a15.464,15.464,0,0,1-6.66,7.2A21.313,21.313,0,0,1,377.881,91.246Z"/>
    <path id="Layer_11" data-name="Layer 11" class="cls-4" d="M426.193,91.534a28.948,28.948,0,0,1-13.932-3.348,24.985,24.985,0,0,1-9.792-9.288,25.59,25.59,0,0,1-3.564-13.428,25.589,25.589,0,0,1,3.564-13.428,24.986,24.986,0,0,1,9.792-9.288,31.246,31.246,0,0,1,25.848-1.044A23.722,23.722,0,0,1,447,48.334l-7.488,6.912a16.1,16.1,0,0,0-12.672-5.9,16.827,16.827,0,0,0-8.352,2.052,14.587,14.587,0,0,0-5.724,5.724,18.023,18.023,0,0,0,0,16.7,14.587,14.587,0,0,0,5.724,5.724,16.827,16.827,0,0,0,8.352,2.052,16.022,16.022,0,0,0,12.672-5.976L447,82.534a23.341,23.341,0,0,1-8.928,6.7A29.632,29.632,0,0,1,426.193,91.534Z"/>
    <path id="Layer_12" data-name="Layer 12" class="cls-4" d="M478.177,91.534a29.417,29.417,0,0,1-14.148-3.384,25.115,25.115,0,0,1-9.864-9.324A25.455,25.455,0,0,1,450.6,65.47a25.454,25.454,0,0,1,3.564-13.356,25.116,25.116,0,0,1,9.864-9.324,31.193,31.193,0,0,1,28.26,0,25.706,25.706,0,0,1,0,45.36A29.208,29.208,0,0,1,478.177,91.534Zm0-9.936a15.993,15.993,0,0,0,8.064-2.052,14.725,14.725,0,0,0,5.652-5.724,18.023,18.023,0,0,0,0-16.7,14.725,14.725,0,0,0-5.652-5.724,16.871,16.871,0,0,0-16.128,0,14.725,14.725,0,0,0-5.652,5.724,18.023,18.023,0,0,0,0,16.7,14.725,14.725,0,0,0,5.652,5.724A15.993,15.993,0,0,0,478.177,81.6Z"/>
    <path id="Layer_13" data-name="Layer 13" class="cls-4" d="M546.649,90.67l-9.72-14.04H526.2V90.67H514.537V40.27h21.816A28,28,0,0,1,547.981,42.5a17.276,17.276,0,0,1,7.6,6.336,17.455,17.455,0,0,1,2.664,9.72A16.418,16.418,0,0,1,547.873,74.47l11.3,16.2H546.649Zm-0.216-32.112a7.983,7.983,0,0,0-2.736-6.516q-2.736-2.268-7.992-2.268h-9.5V67.342h9.5q5.256,0,7.992-2.3A8.006,8.006,0,0,0,546.433,58.558Z"/>
    <path id="Layer_14" data-name="Layer 14" class="cls-4" d="M613.321,90.67l-0.072-30.24L598.417,85.342h-5.256L578.4,61.078V90.67H567.457V40.27h9.648l18.864,31.32,18.576-31.32h9.576l0.144,50.4H613.321Z"/>
    <path id="Layer_15" data-name="Layer 15" class="cls-4" d="M669.409,79.87h-23.4l-4.464,10.8H629.593l22.464-50.4h11.52l22.536,50.4h-12.24Zm-3.672-8.856-7.992-19.3-7.992,19.3h15.984Z"/>
    <path id="Layer_16" data-name="Layer 16" class="cls-4" d="M714.769,91.534a28.948,28.948,0,0,1-13.932-3.348,24.985,24.985,0,0,1-9.792-9.288,25.59,25.59,0,0,1-3.564-13.428,25.589,25.589,0,0,1,3.564-13.428,24.986,24.986,0,0,1,9.792-9.288,31.246,31.246,0,0,1,25.848-1.044,23.722,23.722,0,0,1,8.892,6.624l-7.488,6.912a16.1,16.1,0,0,0-12.672-5.9,16.827,16.827,0,0,0-8.352,2.052,14.587,14.587,0,0,0-5.724,5.724,18.023,18.023,0,0,0,0,16.7,14.587,14.587,0,0,0,5.724,5.724,16.827,16.827,0,0,0,8.352,2.052,16.022,16.022,0,0,0,12.672-5.976l7.488,6.912a23.341,23.341,0,0,1-8.928,6.7A29.632,29.632,0,0,1,714.769,91.534Z"/>
    <path id="Layer_17" data-name="Layer 17" class="cls-4" d="M761.785,70.87l-6.768,7.056V90.67H743.425V40.27h11.592V63.814l22.32-23.544H790.3l-20.88,22.464,22.1,27.936H777.913Z"/>
    <path id="Layer_18" data-name="Layer 18" class="cls-4" d="M328.2,136.462a13.29,13.29,0,0,1,6.768,4.572,12.6,12.6,0,0,1,2.448,7.884,11.648,11.648,0,0,1-5.148,10.188q-5.148,3.564-15.012,3.564H291.193v-50.4h24.624q9.216,0,14.148,3.528a11.167,11.167,0,0,1,4.932,9.576A12.111,12.111,0,0,1,328.2,136.462Zm-25.416-15.408v11.88h11.592q4.32,0,6.552-1.512a5.044,5.044,0,0,0,2.232-4.464,4.955,4.955,0,0,0-2.232-4.428q-2.232-1.476-6.552-1.476H302.785Zm13.608,32.832q4.608,0,6.948-1.512a5.178,5.178,0,0,0,2.34-4.68q0-6.264-9.288-6.264H302.785v12.456h13.608Z"/>
    <path id="Layer_19" data-name="Layer 19" class="cls-4" d="M385.3,153.31v9.36H346.273v-50.4h38.088v9.36h-26.5v10.944h23.4v9.072h-23.4V153.31H385.3Z"/>
    <path id="Layer_20" data-name="Layer 20" class="cls-4" d="M440.809,112.27v50.4h-9.576l-25.128-30.6v30.6h-11.52v-50.4h9.648l25.056,30.6v-30.6h11.52Z"/>
    <path id="Layer_21" data-name="Layer 21" class="cls-4" d="M469.321,163.534a41.237,41.237,0,0,1-11.556-1.62A27.1,27.1,0,0,1,448.8,157.7l3.96-8.784a26.872,26.872,0,0,0,7.7,3.816,28.937,28.937,0,0,0,8.928,1.44q4.968,0,7.344-1.476a4.459,4.459,0,0,0,2.376-3.924,3.751,3.751,0,0,0-1.4-2.988,10.644,10.644,0,0,0-3.6-1.908q-2.2-.72-5.94-1.584a82.112,82.112,0,0,1-9.432-2.736,15.324,15.324,0,0,1-6.3-4.392,11.861,11.861,0,0,1-2.628-8.064,14.028,14.028,0,0,1,2.376-7.956,15.983,15.983,0,0,1,7.164-5.652,29.233,29.233,0,0,1,11.7-2.088,38.741,38.741,0,0,1,9.432,1.152,27.864,27.864,0,0,1,8.064,3.312l-3.6,8.856a28.1,28.1,0,0,0-13.968-3.96q-4.9,0-7.236,1.584a4.835,4.835,0,0,0-2.34,4.176,4.083,4.083,0,0,0,2.7,3.852,42.392,42.392,0,0,0,8.244,2.484,82.112,82.112,0,0,1,9.432,2.736,15.619,15.619,0,0,1,6.3,4.32,11.583,11.583,0,0,1,2.628,7.992,13.762,13.762,0,0,1-2.412,7.884,16.2,16.2,0,0,1-7.236,5.652A29.5,29.5,0,0,1,469.321,163.534Z"/>
    <path id="Layer_22" data-name="Layer 22" class="cls-4" d="M523.105,163.534a29.418,29.418,0,0,1-14.148-3.384,25.116,25.116,0,0,1-9.864-9.324,26.808,26.808,0,0,1,0-26.712,25.116,25.116,0,0,1,9.864-9.324,31.192,31.192,0,0,1,28.26,0,25.706,25.706,0,0,1,0,45.36A29.209,29.209,0,0,1,523.105,163.534Zm0-9.936a15.993,15.993,0,0,0,8.064-2.052,14.725,14.725,0,0,0,5.652-5.724,18.023,18.023,0,0,0,0-16.7,14.725,14.725,0,0,0-5.652-5.724,16.871,16.871,0,0,0-16.128,0,14.725,14.725,0,0,0-5.652,5.724,18.023,18.023,0,0,0,0,16.7,14.725,14.725,0,0,0,5.652,5.724A15.993,15.993,0,0,0,523.105,153.6Z"/>
    <path id="Layer_23" data-name="Layer 23" class="cls-4" d="M605.689,112.27v50.4h-9.576l-25.128-30.6v30.6h-11.52v-50.4h9.648l25.056,30.6v-30.6h11.52Z"/>
  </g>
  <g id="Layer_39" data-name="Layer 39">
    <path id="Layer_26" data-name="Layer 26" class="cls-4" d="M320.017,185.153v33.6h-7.776V204.977H296.977v13.776H289.2v-33.6h7.776V198.4h15.264V185.153h7.776Z"/>
    <path id="Layer_27" data-name="Layer 27" class="cls-4" d="M354,212.513v6.24H327.985v-33.6h25.392v6.24H335.713v7.3h15.6v6.048h-15.6v7.776H354Z"/>
    <path id="Layer_28" data-name="Layer 28" class="cls-4" d="M382.321,211.553h-15.6l-2.976,7.2h-7.968l14.976-33.6h7.68l15.024,33.6H385.3Zm-2.448-5.9-5.328-12.864-5.328,12.864h10.656Z"/>
    <path id="Layer_29" data-name="Layer 29" class="cls-4" d="M396.961,185.153h7.776v27.264h16.848v6.336H396.961v-33.6Z"/>
    <path id="Layer_30" data-name="Layer 30" class="cls-4" d="M429.793,191.489H419.041v-6.336h29.28v6.336H437.569v27.264h-7.776V191.489Z"/>
    <path id="Layer_31" data-name="Layer 31" class="cls-4" d="M483.313,185.153v33.6h-7.776V204.977H460.273v13.776H452.5v-33.6h7.776V198.4h15.264V185.153h7.776Z"/>
    <path id="Layer_32" data-name="Layer 32" class="cls-4" d="M530.689,219.329l-4.032-3.744a17.734,17.734,0,0,1-11.232,3.744,17.509,17.509,0,0,1-6.576-1.176,10.763,10.763,0,0,1-4.584-3.288,7.5,7.5,0,0,1-1.656-4.752,9.014,9.014,0,0,1,1.752-5.5,17.379,17.379,0,0,1,5.64-4.536,13.886,13.886,0,0,1-2.64-3.576,8.078,8.078,0,0,1-.816-3.528,7.4,7.4,0,0,1,1.3-4.32,8.4,8.4,0,0,1,3.672-2.9,13.69,13.69,0,0,1,5.5-1.032,10.977,10.977,0,0,1,7.008,2.088,6.813,6.813,0,0,1,2.64,5.64,7.326,7.326,0,0,1-1.56,4.608,15.759,15.759,0,0,1-5.016,3.888l6.144,5.712a21.824,21.824,0,0,0,1.68-5.232l6,1.872a21.944,21.944,0,0,1-3.072,7.632l3.936,3.648Zm-13.68-29.52a3.9,3.9,0,0,0-2.664.864,2.807,2.807,0,0,0-.984,2.208,3.649,3.649,0,0,0,.528,1.9,13.1,13.1,0,0,0,2.064,2.376,13.408,13.408,0,0,0,3.408-2.328,3.225,3.225,0,0,0,.96-2.232,2.568,2.568,0,0,0-.864-2.016A3.563,3.563,0,0,0,517.009,189.809Zm-1.056,23.664a10.631,10.631,0,0,0,6.288-1.968l-8.112-7.584a10.89,10.89,0,0,0-3.216,2.544,4.523,4.523,0,0,0-.96,2.832,3.541,3.541,0,0,0,1.632,3.024A7.435,7.435,0,0,0,515.953,213.473Z"/>
    <path id="Layer_33" data-name="Layer 33" class="cls-4" d="M564.433,219.329a27.491,27.491,0,0,1-7.7-1.08,18.068,18.068,0,0,1-5.976-2.808l2.64-5.856a17.915,17.915,0,0,0,5.136,2.544,19.291,19.291,0,0,0,5.952.96,9.509,9.509,0,0,0,4.9-.984,2.973,2.973,0,0,0,1.584-2.616,2.5,2.5,0,0,0-.936-1.992,7.1,7.1,0,0,0-2.4-1.272q-1.464-.48-3.96-1.056a54.741,54.741,0,0,1-6.288-1.824,10.216,10.216,0,0,1-4.2-2.928,7.907,7.907,0,0,1-1.752-5.376,9.352,9.352,0,0,1,1.584-5.3,10.655,10.655,0,0,1,4.776-3.768,19.489,19.489,0,0,1,7.8-1.392,25.827,25.827,0,0,1,6.288.768,18.576,18.576,0,0,1,5.376,2.208l-2.4,5.9a18.735,18.735,0,0,0-9.312-2.64,8.731,8.731,0,0,0-4.824,1.056,3.223,3.223,0,0,0-1.56,2.784,2.722,2.722,0,0,0,1.8,2.568,28.261,28.261,0,0,0,5.5,1.656,54.741,54.741,0,0,1,6.288,1.824,10.413,10.413,0,0,1,4.2,2.88,7.722,7.722,0,0,1,1.752,5.328,9.175,9.175,0,0,1-1.608,5.256,10.8,10.8,0,0,1-4.824,3.768A19.666,19.666,0,0,1,564.433,219.329Z"/>
    <path id="Layer_34" data-name="Layer 34" class="cls-4" d="M606.145,211.553h-15.6l-2.976,7.2H579.6l14.976-33.6h7.68l15.024,33.6h-8.16Zm-2.448-5.9-5.328-12.864-5.328,12.864H603.7Z"/>
    <path id="Layer_35" data-name="Layer 35" class="cls-4" d="M628.561,191.393v8.88h15.552v6.24H628.561v12.24h-7.776v-33.6h25.392v6.24H628.561Z"/>
    <path id="Layer_36" data-name="Layer 36" class="cls-4" d="M677.473,212.513v6.24H651.457v-33.6h25.392v6.24H659.185v7.3h15.6v6.048h-15.6v7.776h18.288Z"/>
    <path id="Layer_37" data-name="Layer 37" class="cls-4" d="M690.625,191.489H679.873v-6.336h29.28v6.336H698.4v27.264h-7.776V191.489Z"/>
    <path id="Layer_38" data-name="Layer 38" class="cls-4" d="M728.833,206.849v11.9h-7.776v-12l-13.008-21.6h8.256l8.976,14.928,8.976-14.928h7.632Z"/>
  </g>
  <g id="Layer_45" data-name="Layer 45">
    <path id="Layer_41" data-name="Layer 41" class="cls-5" d="M85.71,94.129l-0.072-30.24L70.806,88.8H65.55L50.79,64.537V94.129H39.846v-50.4h9.648l18.864,31.32,18.576-31.32H96.51l0.144,50.4H85.71Z"/>
    <path id="Layer_42" data-name="Layer 42" class="cls-5" d="M202.91,67.921a13.29,13.29,0,0,1,6.768,4.572,12.6,12.6,0,0,1,2.448,7.884,11.648,11.648,0,0,1-5.148,10.188q-5.148,3.564-15.012,3.564H165.9v-50.4h24.624q9.216,0,14.148,3.528a11.167,11.167,0,0,1,4.932,9.576A12.111,12.111,0,0,1,202.91,67.921ZM177.494,52.513v11.88h11.592q4.32,0,6.552-1.512a5.044,5.044,0,0,0,2.232-4.464,4.955,4.955,0,0,0-2.232-4.428q-2.232-1.476-6.552-1.476H177.494ZM191.1,85.345q4.608,0,6.948-1.512a5.178,5.178,0,0,0,2.34-4.68q0-6.264-9.288-6.264H177.494V85.345H191.1Z"/>
    <path id="Layer_43" data-name="Layer 43" class="cls-5" d="M91.362,160.841v50.4H79.7V190.577H56.8v20.664H45.138v-50.4H56.8v19.872H79.7V160.841H91.362Z"/>
    <path id="Layer_44" data-name="Layer 44" class="cls-5" d="M188.582,212.969a41.237,41.237,0,0,1-11.556-1.62,27.1,27.1,0,0,1-8.964-4.212l3.96-8.784a26.872,26.872,0,0,0,7.7,3.816,28.937,28.937,0,0,0,8.928,1.44q4.968,0,7.344-1.476a4.459,4.459,0,0,0,2.376-3.924,3.751,3.751,0,0,0-1.4-2.988,10.644,10.644,0,0,0-3.6-1.908q-2.2-.72-5.94-1.584A82.112,82.112,0,0,1,178,188.993a15.324,15.324,0,0,1-6.3-4.392,11.861,11.861,0,0,1-2.628-8.064,14.028,14.028,0,0,1,2.376-7.956,15.983,15.983,0,0,1,7.164-5.652,29.233,29.233,0,0,1,11.7-2.088,38.741,38.741,0,0,1,9.432,1.152,27.864,27.864,0,0,1,8.064,3.312l-3.6,8.856a28.1,28.1,0,0,0-13.968-3.96q-4.9,0-7.236,1.584a4.835,4.835,0,0,0-2.34,4.176,4.083,4.083,0,0,0,2.7,3.852,42.392,42.392,0,0,0,8.244,2.484,82.112,82.112,0,0,1,9.432,2.736,15.619,15.619,0,0,1,6.3,4.32,11.583,11.583,0,0,1,2.628,7.992,13.762,13.762,0,0,1-2.412,7.884,16.2,16.2,0,0,1-7.236,5.652A29.5,29.5,0,0,1,188.582,212.969Z"/>
  </g>
</svg>
