<svg id="_7" data-name="7" xmlns="http://www.w3.org/2000/svg" xmlns:xlink="http://www.w3.org/1999/xlink" width="800.724" height="240.411" viewBox="0 0 826 248">
  <defs>
    <style>
      .cls-1, .cls-2, .cls-3, .cls-4, .cls-5 {
        fill-rule: evenodd;
      }

      .cls-1 {
        fill: url(#linear-gradient);
      }

      .cls-2 {
        fill: #051f5b;
      }

      .cls-3 {
        fill: #051f5d;
      }

      .cls-4 {
        fill: #05205c;
      }

      .cls-5 {
        fill: #fff;
      }
    </style>
    <linearGradient id="linear-gradient" x1="257.219" y1="9.515" x2="23.281" y2="238.484" gradientUnits="userSpaceOnUse">
      <stop offset="0" stop-color="#1096d4"/>
      <stop offset="4" stop-color="#125496"/>
    </linearGradient>
  </defs>
  <path id="Layer_3" data-name="Layer 3" class="cls-1" d="M136.455,221.611c-1.04,3.329-3.757,14.335-18.472,17.333-3.971.81-4.009,0.33-50.664,0.285-23.013-.022-32.885,1.72-40.667-11.263-4.059-6.772-3.166-7.274-3.223-65.662-0.009-9.042-3.027-29.259,17.632-34.945,4.56-1.254,58.6-.362,71.266-0.583,2.95-.051,23.755-0.413,29.943-21.538,3.249-11.091-.35-71.481,2.04-79.66C150.116,5.7,170.943,8.794,176.147,8.744c4.559-.043,34.043-0.325,56.977,0,2.437,0.035,19.925.281,23.7,19.135,0.639,3.185.32,70.079,0.232,71.753a23.321,23.321,0,0,1-17.149,20.878c-1,.244-0.963.689-55.787,0.619-16.66-.021-39.281-3.316-46.546,24.119C136.27,155.144,138.346,212.605,136.455,221.611Z"/>
  <path id="Layer_4" data-name="Layer 4" class="cls-2" d="M137.172,97.917c-2.323,26.188-26.706,23.172-28.829,23.174-66.36.035-66.414-.068-68.426-0.783C20.767,113.5,23.411,98.216,23.446,81.4c0.114-54.454-1.47-55.45,4.9-63.992C36.626,6.294,49.2,9.1,70.17,8.713,73.588,8.65,73.549,9,112.9,8.76c4.616-.029,17.265.154,22.961,15.6,1.567,4.251,1.31,6.239,1.327,33.11Z"/>
  <path id="Layer_5" data-name="Layer 5" class="cls-3" d="M144.973,141.846a23.143,23.143,0,0,1,5.1-7.883,25.357,25.357,0,0,1,10.677-6.437c1.472-.449,1.45-0.81,64.391-0.76,5.3,0,23.2-2.62,30.091,14.5,1.949,4.844,1.892,5.007,1.852,51.8-0.021,24.524,1.83,33.777-10.48,42.468-5.735,4.05-7.066,3.663-44.254,3.615-38.368-.049-43.1.773-48.929-4.007-10.919-8.953-9.879-15.026-9.889-29.541C143.5,146.845,143.459,146.74,144.973,141.846Z"/>
  <g id="Layer_24" data-name="Layer 24">
    <path id="Layer_9" data-name="Layer 9" class="cls-4" d="M349.057,86.67l-0.072-30.24L334.153,81.342H328.9l-14.76-24.264V86.67H303.193V36.27h9.648l18.864,31.32,18.576-31.32h9.576L360,86.67H349.057Z"/>
    <path id="Layer_10" data-name="Layer 10" class="cls-4" d="M389.881,87.246a23.817,23.817,0,0,1-11.124-2.556,19.14,19.14,0,0,1-7.7-7.092,20.507,20.507,0,0,1,0-20.592,19.141,19.141,0,0,1,7.7-7.092,23.817,23.817,0,0,1,11.124-2.556,21.554,21.554,0,0,1,10.692,2.556,15.16,15.16,0,0,1,6.66,7.308l-8.712,4.68q-3.024-5.328-8.712-5.328a9.857,9.857,0,0,0-7.272,2.88,10.6,10.6,0,0,0-2.88,7.848,10.6,10.6,0,0,0,2.88,7.848,9.857,9.857,0,0,0,7.272,2.88,9.424,9.424,0,0,0,8.712-5.328l8.712,4.752a15.464,15.464,0,0,1-6.66,7.2A21.313,21.313,0,0,1,389.881,87.246Z"/>
    <path id="Layer_11" data-name="Layer 11" class="cls-4" d="M438.193,87.534a28.948,28.948,0,0,1-13.932-3.348,24.985,24.985,0,0,1-9.792-9.288,25.59,25.59,0,0,1-3.564-13.428,25.589,25.589,0,0,1,3.564-13.428,24.986,24.986,0,0,1,9.792-9.288,31.246,31.246,0,0,1,25.848-1.044A23.722,23.722,0,0,1,459,44.334l-7.488,6.912a16.1,16.1,0,0,0-12.672-5.9,16.827,16.827,0,0,0-8.352,2.052,14.587,14.587,0,0,0-5.724,5.724,18.023,18.023,0,0,0,0,16.7,14.587,14.587,0,0,0,5.724,5.724,16.827,16.827,0,0,0,8.352,2.052,16.022,16.022,0,0,0,12.672-5.976L459,78.534a23.341,23.341,0,0,1-8.928,6.7A29.632,29.632,0,0,1,438.193,87.534Z"/>
    <path id="Layer_12" data-name="Layer 12" class="cls-4" d="M490.177,87.534a29.417,29.417,0,0,1-14.148-3.384,25.115,25.115,0,0,1-9.864-9.324A25.455,25.455,0,0,1,462.6,61.47a25.454,25.454,0,0,1,3.564-13.356,25.116,25.116,0,0,1,9.864-9.324,31.193,31.193,0,0,1,28.26,0,25.706,25.706,0,0,1,0,45.36A29.208,29.208,0,0,1,490.177,87.534Zm0-9.936a15.993,15.993,0,0,0,8.064-2.052,14.725,14.725,0,0,0,5.652-5.724,18.023,18.023,0,0,0,0-16.7,14.725,14.725,0,0,0-5.652-5.724,16.871,16.871,0,0,0-16.128,0,14.725,14.725,0,0,0-5.652,5.724,18.023,18.023,0,0,0,0,16.7,14.725,14.725,0,0,0,5.652,5.724A15.993,15.993,0,0,0,490.177,77.6Z"/>
    <path id="Layer_13" data-name="Layer 13" class="cls-4" d="M558.649,86.67l-9.72-14.04H538.2V86.67H526.537V36.27h21.816A28,28,0,0,1,559.981,38.5a17.276,17.276,0,0,1,7.6,6.336,17.455,17.455,0,0,1,2.664,9.72A16.418,16.418,0,0,1,559.873,70.47l11.3,16.2H558.649Zm-0.216-32.112a7.983,7.983,0,0,0-2.736-6.516q-2.736-2.268-7.992-2.268h-9.5V63.342h9.5q5.256,0,7.992-2.3A8.006,8.006,0,0,0,558.433,54.558Z"/>
    <path id="Layer_14" data-name="Layer 14" class="cls-4" d="M625.321,86.67l-0.072-30.24L610.417,81.342h-5.256L590.4,57.078V86.67H579.457V36.27h9.648l18.864,31.32,18.576-31.32h9.576l0.144,50.4H625.321Z"/>
    <path id="Layer_15" data-name="Layer 15" class="cls-4" d="M681.409,75.87h-23.4l-4.464,10.8H641.593l22.464-50.4h11.52l22.536,50.4h-12.24Zm-3.672-8.856-7.992-19.3-7.992,19.3h15.984Z"/>
    <path id="Layer_16" data-name="Layer 16" class="cls-4" d="M726.769,87.534a28.948,28.948,0,0,1-13.932-3.348,24.985,24.985,0,0,1-9.792-9.288,25.59,25.59,0,0,1-3.564-13.428,25.589,25.589,0,0,1,3.564-13.428,24.986,24.986,0,0,1,9.792-9.288,31.246,31.246,0,0,1,25.848-1.044,23.722,23.722,0,0,1,8.892,6.624l-7.488,6.912a16.1,16.1,0,0,0-12.672-5.9,16.827,16.827,0,0,0-8.352,2.052,14.587,14.587,0,0,0-5.724,5.724,18.023,18.023,0,0,0,0,16.7,14.587,14.587,0,0,0,5.724,5.724,16.827,16.827,0,0,0,8.352,2.052,16.022,16.022,0,0,0,12.672-5.976l7.488,6.912a23.341,23.341,0,0,1-8.928,6.7A29.632,29.632,0,0,1,726.769,87.534Z"/>
    <path id="Layer_17" data-name="Layer 17" class="cls-4" d="M773.785,66.87l-6.768,7.056V86.67H755.425V36.27h11.592V59.814l22.32-23.544H802.3l-20.88,22.464,22.1,27.936H789.913Z"/>
    <path id="Layer_18" data-name="Layer 18" class="cls-4" d="M340.2,132.462a13.29,13.29,0,0,1,6.768,4.572,12.6,12.6,0,0,1,2.448,7.884,11.648,11.648,0,0,1-5.148,10.188q-5.148,3.564-15.012,3.564H303.193v-50.4h24.624q9.216,0,14.148,3.528a11.167,11.167,0,0,1,4.932,9.576A12.111,12.111,0,0,1,340.2,132.462Zm-25.416-15.408v11.88h11.592q4.32,0,6.552-1.512a5.044,5.044,0,0,0,2.232-4.464,4.955,4.955,0,0,0-2.232-4.428q-2.232-1.476-6.552-1.476H314.785Zm13.608,32.832q4.608,0,6.948-1.512a5.178,5.178,0,0,0,2.34-4.68q0-6.264-9.288-6.264H314.785v12.456h13.608Z"/>
    <path id="Layer_19" data-name="Layer 19" class="cls-4" d="M397.3,149.31v9.36H358.273v-50.4h38.088v9.36h-26.5v10.944h23.4v9.072h-23.4V149.31H397.3Z"/>
    <path id="Layer_20" data-name="Layer 20" class="cls-4" d="M452.809,108.27v50.4h-9.576l-25.128-30.6v30.6h-11.52v-50.4h9.648l25.056,30.6v-30.6h11.52Z"/>
    <path id="Layer_21" data-name="Layer 21" class="cls-4" d="M481.321,159.534a41.237,41.237,0,0,1-11.556-1.62A27.1,27.1,0,0,1,460.8,153.7l3.96-8.784a26.872,26.872,0,0,0,7.7,3.816,28.937,28.937,0,0,0,8.928,1.44q4.968,0,7.344-1.476a4.459,4.459,0,0,0,2.376-3.924,3.751,3.751,0,0,0-1.4-2.988,10.644,10.644,0,0,0-3.6-1.908q-2.2-.72-5.94-1.584a82.112,82.112,0,0,1-9.432-2.736,15.324,15.324,0,0,1-6.3-4.392,11.861,11.861,0,0,1-2.628-8.064,14.028,14.028,0,0,1,2.376-7.956,15.983,15.983,0,0,1,7.164-5.652,29.233,29.233,0,0,1,11.7-2.088,38.741,38.741,0,0,1,9.432,1.152,27.864,27.864,0,0,1,8.064,3.312l-3.6,8.856a28.1,28.1,0,0,0-13.968-3.96q-4.9,0-7.236,1.584a4.835,4.835,0,0,0-2.34,4.176,4.083,4.083,0,0,0,2.7,3.852,42.392,42.392,0,0,0,8.244,2.484,82.112,82.112,0,0,1,9.432,2.736,15.619,15.619,0,0,1,6.3,4.32,11.583,11.583,0,0,1,2.628,7.992,13.762,13.762,0,0,1-2.412,7.884,16.2,16.2,0,0,1-7.236,5.652A29.5,29.5,0,0,1,481.321,159.534Z"/>
    <path id="Layer_22" data-name="Layer 22" class="cls-4" d="M535.105,159.534a29.418,29.418,0,0,1-14.148-3.384,25.116,25.116,0,0,1-9.864-9.324,26.808,26.808,0,0,1,0-26.712,25.116,25.116,0,0,1,9.864-9.324,31.192,31.192,0,0,1,28.26,0,25.706,25.706,0,0,1,0,45.36A29.209,29.209,0,0,1,535.105,159.534Zm0-9.936a15.993,15.993,0,0,0,8.064-2.052,14.725,14.725,0,0,0,5.652-5.724,18.023,18.023,0,0,0,0-16.7,14.725,14.725,0,0,0-5.652-5.724,16.871,16.871,0,0,0-16.128,0,14.725,14.725,0,0,0-5.652,5.724,18.023,18.023,0,0,0,0,16.7,14.725,14.725,0,0,0,5.652,5.724A15.993,15.993,0,0,0,535.105,149.6Z"/>
    <path id="Layer_23" data-name="Layer 23" class="cls-4" d="M617.689,108.27v50.4h-9.576l-25.128-30.6v30.6h-11.52v-50.4h9.648l25.056,30.6v-30.6h11.52Z"/>
  </g>
  <g id="Layer_39" data-name="Layer 39">
    <path id="Layer_26" data-name="Layer 26" class="cls-4" d="M332.017,181.153v33.6h-7.776V200.977H308.977v13.776H301.2v-33.6h7.776V194.4h15.264V181.153h7.776Z"/>
    <path id="Layer_27" data-name="Layer 27" class="cls-4" d="M366,208.513v6.24H339.985v-33.6h25.392v6.24H347.713v7.3h15.6v6.048h-15.6v7.776H366Z"/>
    <path id="Layer_28" data-name="Layer 28" class="cls-4" d="M394.321,207.553h-15.6l-2.976,7.2h-7.968l14.976-33.6h7.68l15.024,33.6H397.3Zm-2.448-5.9-5.328-12.864-5.328,12.864h10.656Z"/>
    <path id="Layer_29" data-name="Layer 29" class="cls-4" d="M408.961,181.153h7.776v27.264h16.848v6.336H408.961v-33.6Z"/>
    <path id="Layer_30" data-name="Layer 30" class="cls-4" d="M441.793,187.489H431.041v-6.336h29.28v6.336H449.569v27.264h-7.776V187.489Z"/>
    <path id="Layer_31" data-name="Layer 31" class="cls-4" d="M495.313,181.153v33.6h-7.776V200.977H472.273v13.776H464.5v-33.6h7.776V194.4h15.264V181.153h7.776Z"/>
    <path id="Layer_32" data-name="Layer 32" class="cls-4" d="M542.689,215.329l-4.032-3.744a17.734,17.734,0,0,1-11.232,3.744,17.509,17.509,0,0,1-6.576-1.176,10.763,10.763,0,0,1-4.584-3.288,7.5,7.5,0,0,1-1.656-4.752,9.014,9.014,0,0,1,1.752-5.5,17.379,17.379,0,0,1,5.64-4.536,13.886,13.886,0,0,1-2.64-3.576,8.078,8.078,0,0,1-.816-3.528,7.4,7.4,0,0,1,1.3-4.32,8.4,8.4,0,0,1,3.672-2.9,13.69,13.69,0,0,1,5.5-1.032,10.977,10.977,0,0,1,7.008,2.088,6.813,6.813,0,0,1,2.64,5.64,7.326,7.326,0,0,1-1.56,4.608,15.759,15.759,0,0,1-5.016,3.888l6.144,5.712a21.824,21.824,0,0,0,1.68-5.232l6,1.872a21.944,21.944,0,0,1-3.072,7.632l3.936,3.648Zm-13.68-29.52a3.9,3.9,0,0,0-2.664.864,2.807,2.807,0,0,0-.984,2.208,3.649,3.649,0,0,0,.528,1.9,13.1,13.1,0,0,0,2.064,2.376,13.408,13.408,0,0,0,3.408-2.328,3.225,3.225,0,0,0,.96-2.232,2.568,2.568,0,0,0-.864-2.016A3.563,3.563,0,0,0,529.009,185.809Zm-1.056,23.664a10.631,10.631,0,0,0,6.288-1.968l-8.112-7.584a10.89,10.89,0,0,0-3.216,2.544,4.523,4.523,0,0,0-.96,2.832,3.541,3.541,0,0,0,1.632,3.024A7.435,7.435,0,0,0,527.953,209.473Z"/>
    <path id="Layer_33" data-name="Layer 33" class="cls-4" d="M576.433,215.329a27.491,27.491,0,0,1-7.7-1.08,18.068,18.068,0,0,1-5.976-2.808l2.64-5.856a17.915,17.915,0,0,0,5.136,2.544,19.291,19.291,0,0,0,5.952.96,9.509,9.509,0,0,0,4.9-.984,2.973,2.973,0,0,0,1.584-2.616,2.5,2.5,0,0,0-.936-1.992,7.1,7.1,0,0,0-2.4-1.272q-1.464-.48-3.96-1.056a54.741,54.741,0,0,1-6.288-1.824,10.216,10.216,0,0,1-4.2-2.928,7.907,7.907,0,0,1-1.752-5.376,9.352,9.352,0,0,1,1.584-5.3,10.655,10.655,0,0,1,4.776-3.768,19.489,19.489,0,0,1,7.8-1.392,25.827,25.827,0,0,1,6.288.768,18.576,18.576,0,0,1,5.376,2.208l-2.4,5.9a18.735,18.735,0,0,0-9.312-2.64,8.731,8.731,0,0,0-4.824,1.056,3.223,3.223,0,0,0-1.56,2.784,2.722,2.722,0,0,0,1.8,2.568,28.261,28.261,0,0,0,5.5,1.656,54.741,54.741,0,0,1,6.288,1.824,10.413,10.413,0,0,1,4.2,2.88,7.722,7.722,0,0,1,1.752,5.328,9.175,9.175,0,0,1-1.608,5.256,10.8,10.8,0,0,1-4.824,3.768A19.666,19.666,0,0,1,576.433,215.329Z"/>
    <path id="Layer_34" data-name="Layer 34" class="cls-4" d="M618.145,207.553h-15.6l-2.976,7.2H591.6l14.976-33.6h7.68l15.024,33.6h-8.16Zm-2.448-5.9-5.328-12.864-5.328,12.864H615.7Z"/>
    <path id="Layer_35" data-name="Layer 35" class="cls-4" d="M640.561,187.393v8.88h15.552v6.24H640.561v12.24h-7.776v-33.6h25.392v6.24H640.561Z"/>
    <path id="Layer_36" data-name="Layer 36" class="cls-4" d="M689.473,208.513v6.24H663.457v-33.6h25.392v6.24H671.185v7.3h15.6v6.048h-15.6v7.776h18.288Z"/>
    <path id="Layer_37" data-name="Layer 37" class="cls-4" d="M702.625,187.489H691.873v-6.336h29.28v6.336H710.4v27.264h-7.776V187.489Z"/>
    <path id="Layer_38" data-name="Layer 38" class="cls-4" d="M740.833,202.849v11.9h-7.776v-12l-13.008-21.6h8.256l8.976,14.928,8.976-14.928h7.632Z"/>
  </g>
  <g id="Layer_45" data-name="Layer 45">
    <path id="Layer_41" data-name="Layer 41" class="cls-5" d="M97.71,90.129l-0.072-30.24L82.806,84.8H77.55L62.79,60.537V90.129H51.846v-50.4h9.648l18.864,31.32,18.576-31.32h9.576l0.144,50.4H97.71Z"/>
    <path id="Layer_42" data-name="Layer 42" class="cls-5" d="M214.91,63.921a13.29,13.29,0,0,1,6.768,4.572,12.6,12.6,0,0,1,2.448,7.884,11.648,11.648,0,0,1-5.148,10.188q-5.148,3.564-15.012,3.564H177.9v-50.4h24.624q9.216,0,14.148,3.528a11.167,11.167,0,0,1,4.932,9.576A12.111,12.111,0,0,1,214.91,63.921ZM189.494,48.513v11.88h11.592q4.32,0,6.552-1.512a5.044,5.044,0,0,0,2.232-4.464,4.955,4.955,0,0,0-2.232-4.428q-2.232-1.476-6.552-1.476H189.494ZM203.1,81.345q4.608,0,6.948-1.512a5.178,5.178,0,0,0,2.34-4.68q0-6.264-9.288-6.264H189.494V81.345H203.1Z"/>
    <path id="Layer_43" data-name="Layer 43" class="cls-5" d="M103.362,156.841v50.4H91.7V186.577H68.8v20.664H57.138v-50.4H68.8v19.872H91.7V156.841h11.664Z"/>
    <path id="Layer_44" data-name="Layer 44" class="cls-5" d="M200.582,208.969a41.237,41.237,0,0,1-11.556-1.62,27.1,27.1,0,0,1-8.964-4.212l3.96-8.784a26.872,26.872,0,0,0,7.7,3.816,28.937,28.937,0,0,0,8.928,1.44q4.968,0,7.344-1.476a4.459,4.459,0,0,0,2.376-3.924,3.751,3.751,0,0,0-1.4-2.988,10.644,10.644,0,0,0-3.6-1.908q-2.2-.72-5.94-1.584A82.112,82.112,0,0,1,190,184.993a15.324,15.324,0,0,1-6.3-4.392,11.861,11.861,0,0,1-2.628-8.064,14.028,14.028,0,0,1,2.376-7.956,15.983,15.983,0,0,1,7.164-5.652,29.233,29.233,0,0,1,11.7-2.088,38.741,38.741,0,0,1,9.432,1.152,27.864,27.864,0,0,1,8.064,3.312l-3.6,8.856a28.1,28.1,0,0,0-13.968-3.96q-4.9,0-7.236,1.584a4.835,4.835,0,0,0-2.34,4.176,4.083,4.083,0,0,0,2.7,3.852,42.392,42.392,0,0,0,8.244,2.484,82.112,82.112,0,0,1,9.432,2.736,15.619,15.619,0,0,1,6.3,4.32,11.583,11.583,0,0,1,2.628,7.992,13.762,13.762,0,0,1-2.412,7.884,16.2,16.2,0,0,1-7.236,5.652A29.5,29.5,0,0,1,200.582,208.969Z"/>
  </g>
</svg>
